<?xml version="1.0" encoding="UTF-8" standalone="no"?>
<!-- Created with Inkscape (http://www.inkscape.org/) -->

<svg
   width="25.6mm"
   height="19.200001mm"
   viewBox="0 0 25.6 19.200001"
   version="1.1"
   id="svg5"
   inkscape:version="1.2 (dc2aedaf03, 2022-05-15)"
   sodipodi:docname="mainMenu.svg"
   inkscape:export-filename="mainMenu.png"
   inkscape:export-xdpi="254"
   inkscape:export-ydpi="254"
   xmlns:inkscape="http://www.inkscape.org/namespaces/inkscape"
   xmlns:sodipodi="http://sodipodi.sourceforge.net/DTD/sodipodi-0.dtd"
   xmlns="http://www.w3.org/2000/svg"
   xmlns:svg="http://www.w3.org/2000/svg">
  <sodipodi:namedview
     id="namedview7"
     pagecolor="#ffffff"
     bordercolor="#999999"
     borderopacity="1"
     inkscape:showpageshadow="0"
     inkscape:pageopacity="1"
     inkscape:pagecheckerboard="false"
     inkscape:deskcolor="#d1d1d1"
     inkscape:document-units="mm"
     showgrid="false"
     inkscape:zoom="6.7277217"
     inkscape:cx="52.023555"
     inkscape:cy="40.652693"
     inkscape:window-width="1920"
     inkscape:window-height="1001"
     inkscape:window-x="-9"
     inkscape:window-y="-9"
     inkscape:window-maximized="1"
     inkscape:current-layer="layer1" />
  <defs
     id="defs2">
    <inkscape:perspective
       sodipodi:type="inkscape:persp3d"
       inkscape:vp_x="-1.1957708 : 8.6545073 : 1"
       inkscape:vp_y="0 : 1000 : 0"
       inkscape:vp_z="24.404229 : 8.6545073 : 1"
       inkscape:persp3d-origin="11.604229 : 5.4545071 : 1"
       id="perspective406" />
  </defs>
  <g
     inkscape:label="Layer 1"
     inkscape:groupmode="layer"
     id="layer1">
    <rect
       style="fill:#ababab;stroke:#ffffff;stroke-width:0.165;stroke-opacity:0.854902;paint-order:stroke fill markers;stop-color:#000000"
       id="rect371"
       width="13.331965"
       height="4.7586069"
       x="6.1340175"
       y="3.6753826"
       ry="0.68543673" />
    <rect
       style="fill:#ababab;stroke:#ffffff;stroke-width:0.165477;stroke-opacity:0.854902;paint-order:stroke fill markers;stop-color:#000000"
       id="rect371-5"
       width="3.8345225"
       height="3.8345225"
       x="20.620901"
       y="14.496193"
       ry="0.71097809" />
    <rect
       style="fill:#ababab;stroke:#ffffff;stroke-width:0.165;stroke-opacity:0.854902;paint-order:stroke fill markers;stop-color:#000000"
       id="rect371-6"
       width="13.331965"
       height="4.7586069"
       x="6.1340175"
       y="10.087461"
       ry="0.68543673" />
    <text
       xml:space="preserve"
       style="font-style:normal;font-variant:normal;font-weight:normal;font-stretch:normal;font-size:2.82222px;line-height:1.25;font-family:Ravie;-inkscape-font-specification:'Ravie, Normal';font-variant-ligatures:normal;font-variant-caps:normal;font-variant-numeric:normal;font-variant-east-asian:normal;fill:#000000;fill-opacity:1;stroke:none;stroke-width:0.0875956"
       x="8.6018066"
       y="6.9214716"
       id="text586"><tspan
         sodipodi:role="line"
         id="tspan584"
         x="8.6018066"
         y="6.9214716"
         style="font-style:normal;font-variant:normal;font-weight:normal;font-stretch:normal;font-size:2.82222px;font-family:Ravie;-inkscape-font-specification:'Ravie, Normal';font-variant-ligatures:normal;font-variant-caps:normal;font-variant-numeric:normal;font-variant-east-asian:normal;stroke-width:0.0875956">Play</tspan></text>
    <text
       xml:space="preserve"
       style="font-style:normal;font-variant:normal;font-weight:normal;font-stretch:normal;font-size:2.82222px;line-height:1.25;font-family:Ravie;-inkscape-font-specification:'Ravie, Normal';font-variant-ligatures:normal;font-variant-caps:normal;font-variant-numeric:normal;font-variant-east-asian:normal;fill:#000000;fill-opacity:1;stroke:none;stroke-width:0.0875956"
       x="6.9957037"
       y="13.504427"
       id="text586-6"><tspan
         sodipodi:role="line"
         id="tspan584-7"
         x="6.9957037"
         y="13.504427"
         style="font-style:normal;font-variant:normal;font-weight:normal;font-stretch:normal;font-size:2.82222px;font-family:Ravie;-inkscape-font-specification:'Ravie, Normal';font-variant-ligatures:normal;font-variant-caps:normal;font-variant-numeric:normal;font-variant-east-asian:normal;stroke-width:0.0875956">Levels</tspan></text>
    <path
       fill="currentColor"
       d="m 21.490112,15.241423 a 1.5706734,1.5706734 0 0 1 0.556889,-0.321996 0.62779768,0.62779768 0 0 0 0.49117,0.236152 0.62779768,0.62779768 0 0 0 0.491169,-0.236152 1.5706734,1.5706734 0 0 1 0.55689,0.321996 0.62779768,0.62779768 0 0 0 0.04119,0.543054 0.62779768,0.62779768 0 0 0 0.450133,0.307374 1.5790063,1.5790063 0 0 1 0,0.643049 c -0.18238,0.02798 -0.35061,0.135213 -0.450133,0.307374 a 0.62779768,0.62779768 0 0 0 -0.04119,0.543211 1.5706734,1.5706734 0 0 1 -0.55689,0.321838 0.62779768,0.62779768 0 0 0 -0.491169,-0.235994 0.62779768,0.62779768 0 0 0 -0.49117,0.236152 1.5706734,1.5706734 0 0 1 -0.556889,-0.321839 0.62779768,0.62779768 0 0 0 -0.04119,-0.543211 0.62779768,0.62779768 0 0 0 -0.450134,-0.307217 1.5790063,1.5790063 0 0 1 0,-0.643206 0.62779768,0.62779768 0 0 0 0.450134,-0.307374 0.62779768,0.62779768 0 0 0 0.04119,-0.543053 z m 1.283896,1.580422 a 0.4716737,0.4716737 0 1 0 -0.471674,-0.816939 0.4716737,0.4716737 0 0 0 0.471674,0.816939 z"
       id="path709"
       style="stroke-width:0.157225" />
  </g>
</svg>
